<mxfile host="app.diagrams.net" modified="2024-03-13T00:17:53.434Z" agent="Mozilla/5.0 (Windows NT 10.0; Win64; x64; rv:123.0) Gecko/20100101 Firefox/123.0" etag="5aqmMfVSYe_xleGI95Z2" version="24.0.5" type="device">
  <diagram name="PÃ¡gina-1" id="guBTHNMBmxLYjraFvwUR">
    <mxGraphModel dx="2021" dy="716" grid="1" gridSize="10" guides="1" tooltips="1" connect="1" arrows="1" fold="1" page="1" pageScale="1" pageWidth="827" pageHeight="1169" math="0" shadow="0">
      <root>
        <mxCell id="0" />
        <mxCell id="1" parent="0" />
        <mxCell id="Ns3A80g3xlJKeHbtDC6_-26" value="" style="rounded=0;whiteSpace=wrap;html=1;dashed=1;strokeWidth=3;" vertex="1" parent="1">
          <mxGeometry y="415" width="680" height="170" as="geometry" />
        </mxCell>
        <mxCell id="Ns3A80g3xlJKeHbtDC6_-25" value="" style="rounded=0;whiteSpace=wrap;html=1;dashed=1;strokeWidth=3;" vertex="1" parent="1">
          <mxGeometry y="242.5" width="680" height="170" as="geometry" />
        </mxCell>
        <mxCell id="Ns3A80g3xlJKeHbtDC6_-24" value="" style="rounded=0;whiteSpace=wrap;html=1;dashed=1;strokeWidth=3;" vertex="1" parent="1">
          <mxGeometry y="70" width="680" height="170" as="geometry" />
        </mxCell>
        <mxCell id="Ns3A80g3xlJKeHbtDC6_-2" value="" style="sketch=0;points=[[0.015,0.015,0],[0.985,0.015,0],[0.985,0.985,0],[0.015,0.985,0],[0.25,0,0],[0.5,0,0],[0.75,0,0],[1,0.25,0],[1,0.5,0],[1,0.75,0],[0.75,1,0],[0.5,1,0],[0.25,1,0],[0,0.75,0],[0,0.5,0],[0,0.25,0]];verticalLabelPosition=bottom;html=1;verticalAlign=top;aspect=fixed;align=center;pointerEvents=1;shape=mxgraph.cisco19.rect;prIcon=l3_switch_with_dual_supervisor;fillColor=#FAFAFA;strokeColor=#005073;" vertex="1" parent="1">
          <mxGeometry x="410" y="120" width="50" height="95" as="geometry" />
        </mxCell>
        <mxCell id="Ns3A80g3xlJKeHbtDC6_-3" value="" style="sketch=0;points=[[0.015,0.015,0],[0.985,0.015,0],[0.985,0.985,0],[0.015,0.985,0],[0.25,0,0],[0.5,0,0],[0.75,0,0],[1,0.25,0],[1,0.5,0],[1,0.75,0],[0.75,1,0],[0.5,1,0],[0.25,1,0],[0,0.75,0],[0,0.5,0],[0,0.25,0]];verticalLabelPosition=bottom;html=1;verticalAlign=top;aspect=fixed;align=center;pointerEvents=1;shape=mxgraph.cisco19.rect;prIcon=l3_switch_with_dual_supervisor;fillColor=#FAFAFA;strokeColor=#005073;" vertex="1" parent="1">
          <mxGeometry x="230" y="120" width="50" height="95" as="geometry" />
        </mxCell>
        <mxCell id="Ns3A80g3xlJKeHbtDC6_-5" value="" style="sketch=0;points=[[0.015,0.015,0],[0.985,0.015,0],[0.985,0.985,0],[0.015,0.985,0],[0.25,0,0],[0.5,0,0],[0.75,0,0],[1,0.25,0],[1,0.5,0],[1,0.75,0],[0.75,1,0],[0.5,1,0],[0.25,1,0],[0,0.75,0],[0,0.5,0],[0,0.25,0]];verticalLabelPosition=bottom;html=1;verticalAlign=top;aspect=fixed;align=center;pointerEvents=1;shape=mxgraph.cisco19.rect;prIcon=l3_switch_with_dual_supervisor;fillColor=#FAFAFA;strokeColor=#005073;" vertex="1" parent="1">
          <mxGeometry x="410" y="280" width="50" height="95" as="geometry" />
        </mxCell>
        <mxCell id="Ns3A80g3xlJKeHbtDC6_-6" value="" style="sketch=0;points=[[0.015,0.015,0],[0.985,0.015,0],[0.985,0.985,0],[0.015,0.985,0],[0.25,0,0],[0.5,0,0],[0.75,0,0],[1,0.25,0],[1,0.5,0],[1,0.75,0],[0.75,1,0],[0.5,1,0],[0.25,1,0],[0,0.75,0],[0,0.5,0],[0,0.25,0]];verticalLabelPosition=bottom;html=1;verticalAlign=top;aspect=fixed;align=center;pointerEvents=1;shape=mxgraph.cisco19.rect;prIcon=l3_switch_with_dual_supervisor;fillColor=#FAFAFA;strokeColor=#005073;" vertex="1" parent="1">
          <mxGeometry x="230" y="280" width="50" height="95" as="geometry" />
        </mxCell>
        <mxCell id="Ns3A80g3xlJKeHbtDC6_-7" value="" style="sketch=0;points=[[0.015,0.015,0],[0.985,0.015,0],[0.985,0.985,0],[0.015,0.985,0],[0.25,0,0],[0.5,0,0],[0.75,0,0],[1,0.25,0],[1,0.5,0],[1,0.75,0],[0.75,1,0],[0.5,1,0],[0.25,1,0],[0,0.75,0],[0,0.5,0],[0,0.25,0]];verticalLabelPosition=bottom;html=1;verticalAlign=top;aspect=fixed;align=center;pointerEvents=1;shape=mxgraph.cisco19.rect;prIcon=l2_switch;fillColor=#FAFAFA;strokeColor=#005073;" vertex="1" parent="1">
          <mxGeometry x="70" y="440" width="50" height="50" as="geometry" />
        </mxCell>
        <mxCell id="Ns3A80g3xlJKeHbtDC6_-8" value="" style="sketch=0;points=[[0.015,0.015,0],[0.985,0.015,0],[0.985,0.985,0],[0.015,0.985,0],[0.25,0,0],[0.5,0,0],[0.75,0,0],[1,0.25,0],[1,0.5,0],[1,0.75,0],[0.75,1,0],[0.5,1,0],[0.25,1,0],[0,0.75,0],[0,0.5,0],[0,0.25,0]];verticalLabelPosition=bottom;html=1;verticalAlign=top;aspect=fixed;align=center;pointerEvents=1;shape=mxgraph.cisco19.rect;prIcon=l2_switch;fillColor=#FAFAFA;strokeColor=#005073;" vertex="1" parent="1">
          <mxGeometry x="230" y="440" width="50" height="50" as="geometry" />
        </mxCell>
        <mxCell id="Ns3A80g3xlJKeHbtDC6_-9" value="" style="sketch=0;points=[[0.015,0.015,0],[0.985,0.015,0],[0.985,0.985,0],[0.015,0.985,0],[0.25,0,0],[0.5,0,0],[0.75,0,0],[1,0.25,0],[1,0.5,0],[1,0.75,0],[0.75,1,0],[0.5,1,0],[0.25,1,0],[0,0.75,0],[0,0.5,0],[0,0.25,0]];verticalLabelPosition=bottom;html=1;verticalAlign=top;aspect=fixed;align=center;pointerEvents=1;shape=mxgraph.cisco19.rect;prIcon=l2_switch;fillColor=#FAFAFA;strokeColor=#005073;" vertex="1" parent="1">
          <mxGeometry x="410" y="440" width="50" height="50" as="geometry" />
        </mxCell>
        <mxCell id="Ns3A80g3xlJKeHbtDC6_-10" value="" style="sketch=0;points=[[0.015,0.015,0],[0.985,0.015,0],[0.985,0.985,0],[0.015,0.985,0],[0.25,0,0],[0.5,0,0],[0.75,0,0],[1,0.25,0],[1,0.5,0],[1,0.75,0],[0.75,1,0],[0.5,1,0],[0.25,1,0],[0,0.75,0],[0,0.5,0],[0,0.25,0]];verticalLabelPosition=bottom;html=1;verticalAlign=top;aspect=fixed;align=center;pointerEvents=1;shape=mxgraph.cisco19.rect;prIcon=l2_switch;fillColor=#FAFAFA;strokeColor=#005073;" vertex="1" parent="1">
          <mxGeometry x="560" y="440" width="50" height="50" as="geometry" />
        </mxCell>
        <mxCell id="Ns3A80g3xlJKeHbtDC6_-11" value="" style="endArrow=none;html=1;rounded=0;strokeWidth=3;entryX=-0.06;entryY=0.411;entryDx=0;entryDy=0;entryPerimeter=0;" edge="1" parent="1">
          <mxGeometry width="50" height="50" relative="1" as="geometry">
            <mxPoint x="282" y="327.96000000000004" as="sourcePoint" />
            <mxPoint x="409" y="327.005" as="targetPoint" />
          </mxGeometry>
        </mxCell>
        <mxCell id="Ns3A80g3xlJKeHbtDC6_-12" value="" style="endArrow=none;html=1;rounded=0;strokeWidth=3;entryX=0.5;entryY=0;entryDx=0;entryDy=0;entryPerimeter=0;" edge="1" parent="1" target="Ns3A80g3xlJKeHbtDC6_-5">
          <mxGeometry width="50" height="50" relative="1" as="geometry">
            <mxPoint x="250" y="215.96000000000004" as="sourcePoint" />
            <mxPoint x="377" y="215.005" as="targetPoint" />
          </mxGeometry>
        </mxCell>
        <mxCell id="Ns3A80g3xlJKeHbtDC6_-13" value="" style="endArrow=none;html=1;rounded=0;strokeWidth=3;entryX=0.5;entryY=0;entryDx=0;entryDy=0;entryPerimeter=0;exitX=0.5;exitY=1;exitDx=0;exitDy=0;exitPerimeter=0;" edge="1" parent="1" source="Ns3A80g3xlJKeHbtDC6_-2" target="Ns3A80g3xlJKeHbtDC6_-5">
          <mxGeometry width="50" height="50" relative="1" as="geometry">
            <mxPoint x="162.5" y="240.00000000000003" as="sourcePoint" />
            <mxPoint x="347.5" y="304.04" as="targetPoint" />
          </mxGeometry>
        </mxCell>
        <mxCell id="Ns3A80g3xlJKeHbtDC6_-14" value="" style="endArrow=none;html=1;rounded=0;strokeWidth=3;entryX=0.5;entryY=0;entryDx=0;entryDy=0;entryPerimeter=0;exitX=0.5;exitY=1;exitDx=0;exitDy=0;exitPerimeter=0;" edge="1" parent="1">
          <mxGeometry width="50" height="50" relative="1" as="geometry">
            <mxPoint x="250" y="215" as="sourcePoint" />
            <mxPoint x="250" y="280" as="targetPoint" />
          </mxGeometry>
        </mxCell>
        <mxCell id="Ns3A80g3xlJKeHbtDC6_-15" value="" style="endArrow=none;html=1;rounded=0;strokeWidth=3;entryX=0.5;entryY=0;entryDx=0;entryDy=0;entryPerimeter=0;exitX=0.5;exitY=1;exitDx=0;exitDy=0;exitPerimeter=0;" edge="1" parent="1" source="Ns3A80g3xlJKeHbtDC6_-2" target="Ns3A80g3xlJKeHbtDC6_-6">
          <mxGeometry width="50" height="50" relative="1" as="geometry">
            <mxPoint x="330" y="220" as="sourcePoint" />
            <mxPoint x="330" y="285" as="targetPoint" />
          </mxGeometry>
        </mxCell>
        <mxCell id="Ns3A80g3xlJKeHbtDC6_-16" value="" style="endArrow=none;html=1;rounded=0;strokeWidth=3;exitX=0.5;exitY=1;exitDx=0;exitDy=0;exitPerimeter=0;entryX=0.5;entryY=0;entryDx=0;entryDy=0;entryPerimeter=0;" edge="1" parent="1" source="Ns3A80g3xlJKeHbtDC6_-6" target="Ns3A80g3xlJKeHbtDC6_-7">
          <mxGeometry width="50" height="50" relative="1" as="geometry">
            <mxPoint x="260" y="370" as="sourcePoint" />
            <mxPoint x="100" y="435" as="targetPoint" />
          </mxGeometry>
        </mxCell>
        <mxCell id="Ns3A80g3xlJKeHbtDC6_-17" value="" style="endArrow=none;html=1;rounded=0;strokeWidth=3;exitX=0.5;exitY=1;exitDx=0;exitDy=0;exitPerimeter=0;entryX=0.5;entryY=0;entryDx=0;entryDy=0;entryPerimeter=0;" edge="1" parent="1" source="Ns3A80g3xlJKeHbtDC6_-5" target="Ns3A80g3xlJKeHbtDC6_-7">
          <mxGeometry width="50" height="50" relative="1" as="geometry">
            <mxPoint x="265" y="385" as="sourcePoint" />
            <mxPoint x="105" y="450" as="targetPoint" />
          </mxGeometry>
        </mxCell>
        <mxCell id="Ns3A80g3xlJKeHbtDC6_-18" value="" style="endArrow=none;html=1;rounded=0;strokeWidth=3;entryX=0.5;entryY=0;entryDx=0;entryDy=0;entryPerimeter=0;exitX=0.5;exitY=1;exitDx=0;exitDy=0;exitPerimeter=0;" edge="1" parent="1" source="Ns3A80g3xlJKeHbtDC6_-5" target="Ns3A80g3xlJKeHbtDC6_-8">
          <mxGeometry width="50" height="50" relative="1" as="geometry">
            <mxPoint x="430" y="380" as="sourcePoint" />
            <mxPoint x="105" y="450" as="targetPoint" />
          </mxGeometry>
        </mxCell>
        <mxCell id="Ns3A80g3xlJKeHbtDC6_-19" value="" style="endArrow=none;html=1;rounded=0;strokeWidth=3;entryX=0.6;entryY=-0.12;entryDx=0;entryDy=0;entryPerimeter=0;exitX=0.5;exitY=0.947;exitDx=0;exitDy=0;exitPerimeter=0;" edge="1" parent="1">
          <mxGeometry width="50" height="50" relative="1" as="geometry">
            <mxPoint x="255" y="371.9649999999999" as="sourcePoint" />
            <mxPoint x="260" y="436" as="targetPoint" />
          </mxGeometry>
        </mxCell>
        <mxCell id="Ns3A80g3xlJKeHbtDC6_-20" value="" style="endArrow=none;html=1;rounded=0;strokeWidth=3;exitX=0.5;exitY=0.947;exitDx=0;exitDy=0;exitPerimeter=0;entryX=0.5;entryY=0;entryDx=0;entryDy=0;entryPerimeter=0;" edge="1" parent="1" target="Ns3A80g3xlJKeHbtDC6_-9">
          <mxGeometry width="50" height="50" relative="1" as="geometry">
            <mxPoint x="434.5" y="375.00499999999994" as="sourcePoint" />
            <mxPoint x="435" y="433" as="targetPoint" />
          </mxGeometry>
        </mxCell>
        <mxCell id="Ns3A80g3xlJKeHbtDC6_-21" value="" style="endArrow=none;html=1;rounded=0;strokeWidth=3;exitX=0.6;exitY=0.947;exitDx=0;exitDy=0;exitPerimeter=0;" edge="1" parent="1">
          <mxGeometry width="50" height="50" relative="1" as="geometry">
            <mxPoint x="435" y="373.9649999999999" as="sourcePoint" />
            <mxPoint x="580" y="440" as="targetPoint" />
          </mxGeometry>
        </mxCell>
        <mxCell id="Ns3A80g3xlJKeHbtDC6_-22" value="" style="endArrow=none;html=1;rounded=0;strokeWidth=3;entryX=0.5;entryY=0;entryDx=0;entryDy=0;entryPerimeter=0;" edge="1" parent="1" target="Ns3A80g3xlJKeHbtDC6_-10">
          <mxGeometry width="50" height="50" relative="1" as="geometry">
            <mxPoint x="260" y="380" as="sourcePoint" />
            <mxPoint x="590" y="454" as="targetPoint" />
          </mxGeometry>
        </mxCell>
        <mxCell id="Ns3A80g3xlJKeHbtDC6_-23" value="" style="endArrow=none;html=1;rounded=0;strokeWidth=3;entryX=0.5;entryY=0;entryDx=0;entryDy=0;entryPerimeter=0;" edge="1" parent="1" target="Ns3A80g3xlJKeHbtDC6_-9">
          <mxGeometry width="50" height="50" relative="1" as="geometry">
            <mxPoint x="260" y="380" as="sourcePoint" />
            <mxPoint x="445" y="450" as="targetPoint" />
          </mxGeometry>
        </mxCell>
        <mxCell id="Ns3A80g3xlJKeHbtDC6_-27" value="CAMADA CORE" style="text;html=1;strokeColor=none;fillColor=none;align=center;verticalAlign=middle;whiteSpace=wrap;rounded=0;fontSize=16;fontStyle=1" vertex="1" parent="1">
          <mxGeometry x="500" y="152.5" width="170" height="30" as="geometry" />
        </mxCell>
        <mxCell id="Ns3A80g3xlJKeHbtDC6_-28" value="CAMADA DE DISTRIBUIÃÃO" style="text;html=1;strokeColor=none;fillColor=none;align=center;verticalAlign=middle;whiteSpace=wrap;rounded=0;fontSize=16;fontStyle=1" vertex="1" parent="1">
          <mxGeometry x="490" y="312.5" width="190" height="30" as="geometry" />
        </mxCell>
        <mxCell id="Ns3A80g3xlJKeHbtDC6_-29" value="CAMADA DE ACESSO" style="text;html=1;strokeColor=none;fillColor=none;align=center;verticalAlign=middle;whiteSpace=wrap;rounded=0;fontSize=16;fontStyle=1" vertex="1" parent="1">
          <mxGeometry x="510" y="520" width="160" height="30" as="geometry" />
        </mxCell>
      </root>
    </mxGraphModel>
  </diagram>
</mxfile>
